<svg width="20" height="20" viewBox="0 0 20 20" fill="none" xmlns="http://www.w3.org/2000/svg">
<path d="M7.70837 7.54169C9.18814 8.08337 10.8119 8.08337 12.2917 7.54169" stroke="#002D5A" stroke-width="1.5" stroke-linecap="round" stroke-linejoin="round"/>
<path d="M14.0167 1.66669H5.98339C4.20839 1.66669 2.76672 3.11669 2.76672 4.88335V16.625C2.76672 18.125 3.84172 18.7584 5.15839 18.0334L9.22506 15.775C9.65839 15.5334 10.3584 15.5334 10.7834 15.775L14.8501 18.0334C16.1667 18.7667 17.2417 18.1334 17.2417 16.625V4.88335C17.2334 3.11669 15.7917 1.66669 14.0167 1.66669Z" stroke="#002D5A" stroke-width="1.5" stroke-linecap="round" stroke-linejoin="round"/>
<path d="M14.0167 1.66669H5.98339C4.20839 1.66669 2.76672 3.11669 2.76672 4.88335V16.625C2.76672 18.125 3.84172 18.7584 5.15839 18.0334L9.22506 15.775C9.65839 15.5334 10.3584 15.5334 10.7834 15.775L14.8501 18.0334C16.1667 18.7667 17.2417 18.1334 17.2417 16.625V4.88335C17.2334 3.11669 15.7917 1.66669 14.0167 1.66669Z" stroke="#002D5A" stroke-width="1.5" stroke-linecap="round" stroke-linejoin="round"/>
</svg>
